#!OML:ASF X:\für Bonn\!DataBase\2005_08_11_Bastian_Final\c3d\Bastian.ASF
:FULLY-SPECIFIED
:DEGREES
184
root 5.85971 16.3683 -3.91805 92.1539 106.941 -621.313
lowerback 13.6979 -4.27215 9.54205
upperback 9.07636 -3.97306 4.15174
thorax 1.64765 -1.44072 -0.462287
lowerneck -8.12582 7.89263 -5.0408
upperneck -7.13676 10.9743 -3.82034
head -0.938925 5.7157 -0.210994
rclavicle 9.14409e-015 6.36111e-015
rhumerus -58.6608 9.19791 -87.1394
rradius 84.8484
rwrist 14.6392
rhand -22.6336 18.063
rfingers 7.12502
rthumb 3.79694 -11.8829
lclavicle 9.14409e-015 6.36111e-015
lhumerus -29.5038 -10.0375 91.5172
lradius 81.4882
lwrist 198.875
lhand -27.0755 12.751
lfingers 7.12502
lthumb -0.493036 42.7302
rfemur -17.9526 -9.78956 29.4794
rtibia 48.7426
rfoot -18.8782 7.15338
rtoes -22.8052
lfemur -23.2801 2.02398 -12.1899
ltibia 111.368
lfoot -8.93424 -4.15947
ltoes -8.59024
185
root 6.10295 16.301 -3.85386 91.0652 107.101 -622.175
lowerback 14.1626 -4.12195 9.93499
upperback 9.15564 -3.64926 4.13186
thorax 1.49322 -1.25562 -0.718371
lowerneck -8.30663 7.7586 -4.92697
upperneck -7.36523 10.801 -3.93644
head -0.966961 5.63835 -0.263019
rclavicle 3.97569e-016 7.15625e-015
rhumerus -56.6216 10.4669 -88.3326
rradius 85.1679
rwrist 15.2441
rhand -23.1168 18.8574
rfingers 7.12502
rthumb 3.33035 -11.0963
lclavicle 3.97569e-016 7.15625e-015
lhumerus -30.1037 -9.45078 91.2978
lradius 79.9101
lwrist 198.1
lhand -26.2617 11.2314
lfingers 7.12502
lthumb 0.293028 41.211
rfemur -17.1894 -10.6443 29.6128
rtibia 49.6775
rfoot -20.0524 7.48475
rtoes -20.711
lfemur -25.5322 2.86502 -11.6119
ltibia 112.505
lfoot -9.53994 -4.40374
ltoes -8.71899
186
root 6.34921 16.2425 -3.79088 90.1288 107.221 -622.91
lowerback 14.5442 -3.95377 10.247
upperback 9.23227 -3.32273 4.11799
thorax 1.38913 -1.07232 -0.932253
lowerneck -8.55301 7.61541 -5.07153
upperneck -7.49545 10.6465 -3.88319
head -0.978441 5.57168 -0.220634
rclavicle -2.3059e-014 1.1609e-013
rhumerus -54.586 12.1874 -89.5813
rradius 85.506
rwrist 15.5886
rhand -23.8582 19.5143
rfingers 7.12502
rthumb 2.61434 -10.4494
lclavicle -2.3059e-014 1.1609e-013
lhumerus -30.7294 -8.78424 90.985
lradius 78.6161
lwrist 197.458
lhand -25.638 9.4669
lfingers 7.12502
lthumb 0.895414 39.4448
rfemur -16.3124 -11.4108 29.6863
rtibia 50.3893
rfoot -21.2502 7.75807
rtoes -19.0661
lfemur -27.7924 3.78026 -11.1325
ltibia 113.318
lfoot -10.1586 -4.56087
ltoes -9.35272
187
root 6.59988 16.1971 -3.73239 89.2399 107.308 -623.612
lowerback 14.8212 -3.77346 10.5623
upperback 9.31866 -2.99608 4.09054
thorax 1.35473 -0.886215 -1.16985
lowerneck -8.88166 7.45116 -5.40159
upperneck -7.49089 10.4927 -3.6745
head -0.953443 5.5035 -0.0966177
rclavicle 2.08724e-014 -7.95139e-015
rhumerus -52.6404 14.238 -90.8014
rradius 86.0286
rwrist 15.6241
rhand -24.6219 20.0735
rfingers 7.12502
rthumb 1.87677 -9.89798
lclavicle 2.08724e-014 -7.95139e-015
lhumerus -31.403 -8.1937 90.6057
lradius 77.563
lwrist 196.819
lhand -25.0593 7.91166
lfingers 7.12502
lthumb 1.4543 37.8865
rfemur -15.3164 -12.1093 29.6837
rtibia 50.9002
rfoot -22.3654 8.02923
rtoes -17.5065
lfemur -30.0026 4.68148 -10.7868
ltibia 113.796
lfoot -10.8542 -4.67045
ltoes -10.6058
188
root 6.85602 16.1669 -3.67564 88.4816 107.323 -624.221
lowerback 14.9652 -3.56314 10.7799
upperback 9.38546 -2.6652 4.05806
thorax 1.37609 -0.702553 -1.36692
lowerneck -9.15696 7.27834 -5.81902
upperneck -7.39443 10.3333 -3.44638
head -0.913149 5.43076 0.0472985
rclavicle 4.53229e-014 2.46493e-014
rhumerus -50.7258 16.4852 -91.8938
rradius 86.7552
rwrist 15.558
rhand -25.278 20.4399
rfingers 7.12502
rthumb 1.24312 -9.5362
lclavicle 4.53229e-014 2.46493e-014
lhumerus -32.1922 -7.67587 90.161
lradius 76.6658
lwrist 196.197
lhand -24.6711 6.88787
lfingers 7.12502
lthumb 1.82919 36.8598
rfemur -14.2044 -12.6471 29.6103
rtibia 51.1745
rfoot -23.4009 8.12007
rtoes -16.946
lfemur -32.1363 5.54525 -10.6107
ltibia 113.926
lfoot -11.5594 -4.74795
ltoes -11.8661
189
root 7.11704 16.1528 -3.62168 87.7325 107.312 -624.822
lowerback 15.0547 -3.32149 10.9209
upperback 9.44895 -2.31292 4.02048
thorax 1.42903 -0.510938 -1.53314
lowerneck -9.45765 7.12085 -6.16505
upperneck -7.19663 10.1933 -3.20653
head -0.83325 5.3612 0.188952
rclavicle 3.8763e-014 1.74931e-014
rhumerus -48.8224 18.6965 -92.8449
rradius 87.8372
rwrist 15.4731
rhand -25.5468 20.6077
rfingers 7.12502
rthumb 0.983477 -9.36974
lclavicle 3.8763e-014 1.74931e-014
lhumerus -33.1214 -7.38569 89.6543
lradius 75.9986
lwrist 195.578
lhand -24.3772 6.52908
lfingers 7.12502
lthumb 2.11309 36.4984
rfemur -12.9106 -13.0343 29.5091
rtibia 51.1253
rfoot -24.2593 8.10606
rtoes -17.3626
lfemur -34.1372 6.32525 -10.5518
ltibia 113.699
lfoot -12.3301 -4.84813
ltoes -13.0124
190
root 7.382 16.1585 -3.56923 87.028 107.195 -625.43
lowerback 15.0649 -3.03379 10.7875
upperback 9.49252 -1.94968 4.01085
thorax 1.50895 -0.32801 -1.5236
lowerneck -9.74593 6.99519 -6.33264
upperneck -6.93442 10.0767 -3.09591
head -0.718364 5.29619 0.266291
rclavicle 5.96354e-015 -3.10104e-014
rhumerus -47.0396 20.8645 -93.616
rradius 89.2733
rwrist 15.4236
rhand -25.5347 20.579
rfingers 7.12502
rthumb 0.995144 -9.39843
lclavicle 5.96354e-015 -3.10104e-014
lhumerus -34.1191 -7.23015 89.1633
lradius 75.5279
lwrist 195.016
lhand -24.2233 6.78625
lfingers 7.12502
lthumb 2.26172 36.754
rfemur -11.4876 -13.2412 29.3358
rtibia 50.7062
rfoot -24.9221 7.86435
rtoes -18.7786
lfemur -36.046 6.97222 -10.7068
ltibia 113.099
lfoot -13.1975 -4.9672
ltoes -13.0143
191
root 7.65172 16.1875 -3.52008 86.2517 107.024 -626.109
lowerback 15.0528 -2.70884 10.5577
upperback 9.51825 -1.55443 3.98801
thorax 1.58317 -0.135068 -1.47923
lowerneck -10.0649 6.86357 -6.38893
upperneck -6.54292 9.94509 -3.00801
head -0.55076 5.21478 0.324487
rclavicle -7.35503e-015 -3.18055e-014
rhumerus -45.3699 22.7446 -94.2615
rradius 90.8996
rwrist 15.5043
rhand -25.3043 20.4033
rfingers 7.12502
rthumb 1.21767 -9.57298
lclavicle -7.35503e-015 -3.18055e-014
lhumerus -35.1482 -7.35981 88.6853
lradius 75.2562
lwrist 194.596
lhand -24.1736 7.45149
lfingers 7.12502
lthumb 2.30971 37.4187
rfemur -9.83385 -13.233 29.1448
rtibia 49.8684
rfoot -25.4625 7.4218
rtoes -20.5033
lfemur -37.7352 7.50577 -11.004
ltibia 112.074
lfoot -14.0148 -5.12109
ltoes -13.4016
192
root 7.92619 16.2376 -3.47447 85.4857 106.824 -626.799
lowerback 15.0256 -2.34394 10.2801
upperback 9.48739 -1.11588 3.94796
thorax 1.60549 0.0715775 -1.43213
lowerneck -10.2564 6.73441 -6.34416
upperneck -6.13294 9.79361 -2.93757
head -0.391044 5.12011 0.356554
rclavicle -1.17283e-014 9.54166e-015
rhumerus -43.8237 24.0989 -94.7388
rradius 92.4703
rwrist 15.699
rhand -24.84 20.4057
rfingers 7.12502
rthumb 1.66609 -9.56753
lclavicle -1.17283e-014 9.54166e-015
lhumerus -36.3081 -7.70557 88.2257
lradius 75.3295
lwrist 194.499
lhand -24.2593 8.1755
lfingers 7.12502
lthumb 2.22689 38.1436
rfemur -7.97209 -13.0179 28.9651
rtibia 48.626
rfoot -25.7823 6.81307
rtoes -22.2637
lfemur -39.1632 7.89814 -11.384
ltibia 110.607
lfoot -14.6212 -5.32095
ltoes -13.3416
193
root 8.20436 16.3063 -3.43198 84.5431 106.628 -627.686
lowerback 14.9401 -1.96906 9.96502
upperback 9.45178 -0.677293 3.91366
thorax 1.65045 0.276778 -1.35736
lowerneck -10.4559 6.60903 -6.21375
upperneck -5.66726 9.63829 -2.89418
head -0.206948 5.01923 0.368915
rclavicle 3.77691e-015 3.73715e-014
rhumerus -42.265 25.0931 -95.0147
rradius 93.8079
rwrist 15.8051
rhand -24.3495 20.6587
rfingers 7.12502
rthumb 2.13979 -9.31033
lclavicle 3.77691e-015 3.73715e-014
lhumerus -37.4035 -8.28781 87.7563
lradius 75.4311
lwrist 194.865
lhand -24.3396 9.0051
lfingers 7.12502
lthumb 2.14938 38.974
rfemur -5.94483 -12.6781 28.8423
rtibia 47.014
rfoot -25.8969 6.07478
rtoes -24.1758
lfemur -40.3489 8.20651 -11.7946
ltibia 108.736
lfoot -14.883 -5.54659
ltoes -13.2973
194
root 8.48789 16.3893 -3.39473 83.4664 106.406 -628.712
lowerback 14.8465 -1.59284 9.64758
upperback 9.36244 -0.238611 3.85236
thorax 1.63839 0.476902 -1.30857
lowerneck -10.5737 6.47459 -6.04756
upperneck -5.1354 9.45849 -2.82542
head -0.0139442 4.90271 0.381214
rclavicle 4.17448e-015 -1.03368e-014
rhumerus -40.9223 26.0621 -95.2426
rradius 95.0213
rwrist 15.7301
rhand -24.0345 20.9391
rfingers 7.12502
rthumb 2.44404 -9.02669
lclavicle 4.17448e-015 -1.03368e-014
lhumerus -38.6062 -8.95997 87.2661
lradius 75.6512
lwrist 195.614
lhand -24.5019 9.69797
lfingers 7.12502
lthumb 1.99266 39.6684
rfemur -3.77034 -12.213 28.7281
rtibia 45.1049
rfoot -25.782 5.27611
rtoes -25.9014
lfemur -41.3424 8.55255 -12.2576
ltibia 106.522
lfoot -14.7511 -5.73143
ltoes -13.1621
195
root 8.77531 16.4789 -3.36207 82.271 106.236 -629.874
lowerback 14.6605 -1.22868 9.36629
upperback 9.28536 0.177267 3.81321
thorax 1.68472 0.669566 -1.25084
lowerneck -10.6808 6.34426 -5.88912
upperneck -4.59707 9.28321 -2.77528
head 0.18048 4.78886 0.388493
rclavicle 1.07344e-014 2.46493e-014
rhumerus -39.7748 27.2112 -95.4318
rradius 96.3117
rwrist 15.3269
rhand -23.867 21.0816
rfingers 7.12502
rthumb 2.60582 -8.88225
lclavicle 1.07344e-014 2.46493e-014
lhumerus -39.7505 -9.69511 86.7598
lradius 75.9089
lwrist 196.913
lhand -24.6741 10.2025
lfingers 7.12502
lthumb 1.82632 40.1745
rfemur -1.5316 -11.6782 28.7162
rtibia 42.988
rfoot -25.4516 4.39776
rtoes -27.5652
lfemur -42.1493 8.93589 -12.6949
ltibia 104.009
lfoot -14.5507 -5.87378
ltoes -13.4514
196
root 9.06575 16.5725 -3.33729 80.8681 106.055 -631.256
lowerback 14.4415 -0.897239 9.09931
upperback 9.17134 0.548107 3.75901
thorax 1.70319 0.837304 -1.20908
lowerneck -10.6604 6.23684 -5.75521
upperneck -4.08997 9.12834 -2.68974
head 0.341947 4.6879 0.404063
rclavicle 1.2921e-014 3.18055e-015
rhumerus -38.9522 28.3924 -95.6352
rradius 97.7272
rwrist 14.6946
rhand -23.7509 21.2828
rfingers 7.12502
rthumb 2.71788 -8.67961
lclavicle 1.2921e-014 3.18055e-015
lhumerus -40.9169 -10.3352 86.2331
lradius 76.2295
lwrist 198.456
lhand -24.8808 10.4274
lfingers 7.12502
lthumb 1.62666 40.401
rfemur 0.718135 -11.1386 28.7001
rtibia 40.7519
rfoot -24.8683 3.54144
rtoes -28.8471
lfemur -42.7314 9.24776 -13.2135
ltibia 101.217
lfoot -14.3532 -5.92278
ltoes -13.7546
